<svg xmlns="http://www.w3.org/2000/svg" style="fill-rule:evenodd;" viewBox="0 0 1000 1000">
<path d="M0 0h1000v1000H0z" style="fill:url(#a)"/>
<path d="M0 0h1000v1000H0z" style="fill:url(#b);fill-opacity:.2">
<animate attributeName="fill-opacity" values="0.2; 1; 0.2" dur="20s" repeatCount="indefinite"/>
</path>
<path style="fill:#000" d="M373 522s-42-22-38-77c2-53 44-89 86-96 59-8 110 37 124 51 0 0 34-18 58-4 24 13 53 50 17 86l45 107v8c-1-1-58-103-68-107 0 0-14-2-30-14 0 0-3-2-3 1-1 3-20 56-51 56 0 0-42 0-56 23l-10 26c-2 3 0 4 1 6l20 30h35v14h-16v2l13 7-9 11-27-18-5-5-27-41s-1-2 1-7l4-11s2-5-4-5c-4-1-20-13-22-19l-23-12s-3-1-4 2c-1 4-4 5-1 8l13 32h29v13h-13v3l11 6-8 11-26-20-21-44v-4l5-16v-3Zm223-82c4 0 7 3 7 7s-3 7-7 7-7-3-7-7 3-7 7-7Z"/>
<text text-anchor="middle" x="50%" y="946" style="font-family:&quot;Poiret One&quot;;font-size:34px">
1/255</text>
<defs>
<linearGradient id="a" x1="0" x2="1" y1="0" y2="0" gradientTransform="rotate(45) scale(1414)" gradientUnits="userSpaceOnUse">
<stop offset="0" style="stop-color:#cf7c7c;"/>
<stop offset="1" style="stop-color:#ffa0f7;"/>
</linearGradient>
<linearGradient id="b" x1="0" x2="1" y1="0" y2="0" gradientTransform="rotate(135) scale(1414)" gradientUnits="userSpaceOnUse">
<stop offset="0" style="stop-color:#8b95ff;"/>
<stop offset="1" style="stop-color:#2ca8a8;"/>
</linearGradient>
</defs>
</svg>
