<?xml version="1.0" encoding="UTF-8" standalone="no"?>
<!DOCTYPE svg PUBLIC "-//W3C//DTD SVG 1.1//EN" "http://www.w3.org/Graphics/SVG/1.1/DTD/svg11.dtd">
<svg width="100%" height="100%" viewBox="0 0 1000 1000" version="1.1" xmlns="http://www.w3.org/2000/svg" xmlns:xlink="http://www.w3.org/1999/xlink" xml:space="preserve" xmlns:serif="http://www.serif.com/" style="fill-rule:evenodd;clip-rule:evenodd;stroke-linejoin:round;stroke-miterlimit:2;">
<rect id="Optimised-shape" serif:id="Optimised shape" x="0" y="0" width="1000" height="1000" style="fill:url(#_Linear1);"/>
<g id="Optimised-shape1" serif:id="Optimised shape">
<rect id="Couche-transparente" serif:id="Couche transparente" x="0" y="0" width="1000" height="1000" style="fill:url(#_Linear2);"/>
<path d="M373.466,522.47c-0,-0 -42.667,-22.667 -38.667,-77.333c2.667,-53.334 44,-89.334 86.667,-96c58.666,-8 109.333,37.333 124,50.666c-0,0 33.333,-17.333 57.333,-4c24,13.334 53.333,50.667 17.333,86.667l45.334,106.667l-0,8c-1.334,-1.334 -58.667,-102.667 -68,-106.667c-0,-0 -14.667,-2.667 -30.667,-14.667c-0,0 -2.667,-1.333 -2.667,1.334c-1.333,2.666 -20,56 -50.666,56c-0,-0 -42.667,-0 -56,22.666l-10.667,26.667c-1.333,2.667 -0,4 1.333,5.333l20,30.667l34.667,-0l-0,13.333l-16,0l-0,2.667l13.333,6.667l-9.333,10.666l-26.667,-17.333l-5.333,-5.333l-26.667,-41.334c0,0 -1.333,-1.333 1.334,-6.666l4,-10.667c-0,-0 1.333,-5.333 -4,-5.333c-4,-1.334 -20,-13.334 -22.667,-18.667l-22.667,-12c0,-0 -2.666,-1.333 -4,1.333c-1.333,4 -4,5.334 -1.333,8l13.333,32l29.334,0l-0,13.334l-13.334,-0l0,2.666l10.667,6.667l-8,10.667l-25.333,-20l-21.334,-44l0,-4l5.334,-16l-0,-2.667Zm222.666,-82.667c4.023,0 7.334,3.311 7.334,7.334c-0,4.022 -3.311,7.333 -7.334,7.333c-4.023,-0 -7.333,-3.311 -7.333,-7.333c-0,-4.023 3.31,-7.334 7.333,-7.334Z"/>
<text x="434.974px" y="946.263px" style="font-family:'PoiretOne-Regular', 'Poiret One';font-size:34.188px;">
35/255</text>
</g>
<defs>
<linearGradient id="_Linear1" x1="0" y1="0" x2="1" y2="0" gradientUnits="userSpaceOnUse" gradientTransform="matrix(1000,1000,-1000,1000,0,0)">
<stop offset="0" style="stop-color:#cf7c7c;stop-opacity:1"/>
<stop offset="1" style="stop-color:#ffa0f7;stop-opacity:1"/>
</linearGradient>
<linearGradient id="_Linear2" x1="0" y1="0" x2="1" y2="0" gradientUnits="userSpaceOnUse" gradientTransform="matrix(-1000,1000,-1000,-1000,1000,0)">
<stop offset="0" style="stop-color:#8b95ff;stop-opacity:0.3"/>
<stop offset="1" style="stop-color:#2ca8a8;stop-opacity:0.3"/>
</linearGradient>
</defs>
</svg>
