<?xml version="1.0" encoding="UTF-8" standalone="no"?>
<!DOCTYPE svg PUBLIC "-//W3C//DTD SVG 1.1//EN" "http://www.w3.org/Graphics/SVG/1.1/DTD/svg11.dtd">
<svg width="100%" height="100%" viewBox="0 0 1000 1000" version="1.1" xmlns="http://www.w3.org/2000/svg" xmlns:xlink="http://www.w3.org/1999/xlink" xml:space="preserve" xmlns:serif="http://www.serif.com/" style="fill-rule:evenodd;clip-rule:evenodd;stroke-linejoin:round;stroke-miterlimit:2;">
<rect id="Une-forme" serif:id="Une forme" x="0" y="0" width="1000" height="1000" style="fill:none;"/>
<path id="Kiwi-bird" d="M408,518.667c0,-0 -31.602,-16.748 -29.333,-57.334c2.268,-40.585 33.805,-67.223 65.333,-72c44,-6.666 81.508,27.402 93.333,37.334c0,-0 24.267,-12.966 42.667,-2.667c18.4,10.299 40.452,38.209 13.333,65.333l33.334,80c-0,0 0.326,5.536 -0,5.334c-0.326,-0.202 -43.765,-76.644 -50.667,-80c0,-0 -11.11,-1.173 -22.667,-10.667c0,-0 -1.922,-0.683 -2.666,1.333c-0.744,2.017 -14.599,41.881 -37.334,41.334c0,-0 -32.415,0.695 -42.666,17.333c-0,-0 -7.744,18.331 -8,20c-0.257,1.669 0.535,3.308 1.333,4c0.798,0.692 14.667,22.667 14.667,22.667l26.666,-0l0,10.666l-12,0c0,0 -1.8,0.232 0,1.334c1.8,1.102 9.334,5.333 9.334,5.333l-6.667,8l-20,-13.333c0,-0 -2.44,-1.465 -4,-4l-20,-30.667c0,-0 -0.782,-1.461 1.333,-5.333c2.115,-3.873 2.667,-8 2.667,-8c0,-0 1.116,-3.211 -2.667,-4c-3.782,-0.789 -15.359,-9.998 -17.333,-13.334l-17.333,-9.333c-0,-0 -1.865,-1.306 -2.667,1.333c-0.802,2.64 -2.504,3.409 -1.333,5.334c1.17,1.924 10.666,24 10.666,24l21.334,-0l-0,10.666l-9.334,0c0,0 -1.808,0.168 0,1.334c1.809,1.165 8,5.333 8,5.333l-6.666,8l-18.667,-14.667l-16,-33.333c0,-0 -0.54,-0.88 0,-2.667c0.54,-1.786 4,-12 4,-12c0,0 0.795,-1.229 0,-2.666Zm166.667,-61.334c2.943,0 5.333,2.39 5.333,5.334c0,2.943 -2.39,5.333 -5.333,5.333c-2.944,-0 -5.334,-2.39 -5.334,-5.333c0,-2.944 2.39,-5.334 5.334,-5.334Z"/>
</svg>
