<svg xmlns="http://www.w3.org/2000/svg" xml:space="preserve" style="fill-rule:evenodd;clip-rule:evenodd;stroke-linejoin:round;stroke-miterlimit:2" viewBox="0 0 1000 1000">
  <path d="M0 0h1000v1000H0z" style="fill:none"/>
  <path d="M408 519s-32-17-29-58c2-40 33-67 65-72 44-6 82 28 93 38 0 0 25-13 43-3s40 38 13 65l34 80v6c-1-1-44-77-51-80 0 0-11-2-23-11 0 0-2-1-2 1-1 2-15 42-38 42 0 0-32 0-42 17l-8 20c-1 2 0 3 1 4l15 23h26v10h-12v2l10 5-7 8-20-13-4-4-20-31s-1-1 1-5l3-8s1-4-3-4c-3-1-15-10-17-14l-17-9s-2-1-3 1c-1 3-3 4-1 6l10 24h22v10h-10v2l8 5-6 8-19-15-16-33v-3l4-12v-2Zm167-62a5 5 0 1 1 0 11 5 5 0 0 1 0-11Z"/>
</svg>
